<svg width="48" height="48" viewBox="0 0 48 48" fill="none" xmlns="http://www.w3.org/2000/svg">
<circle cx="24" cy="24" r="24" fill="#06540B"/>
<path d="M30.6019 32.3999C30.7518 32.3997 30.8964 32.4555 31.0072 32.5566C31.118 32.6576 31.187 32.7964 31.2005 32.9457C31.2141 33.0951 31.1712 33.244 31.0804 33.3633C30.9896 33.4826 30.8574 33.5636 30.7099 33.5903L30.6019 33.5999H17.4019C17.252 33.6002 17.1073 33.5443 16.9965 33.4433C16.8857 33.3423 16.8168 33.2035 16.8032 33.0542C16.7897 32.9048 16.8325 32.7559 16.9234 32.6365C17.0142 32.5172 17.1464 32.4363 17.2939 32.4095L17.4019 32.3999H30.6019ZM24.0019 14.4023C24.1423 14.4023 24.2783 14.4515 24.3862 14.5414C24.4941 14.6313 24.567 14.7562 24.5923 14.8943L24.6019 15.0023L24.5971 29.1551L28.9711 24.7775C29.0702 24.678 29.2011 24.6163 29.3411 24.6034C29.481 24.5905 29.621 24.627 29.7367 24.7067L29.8207 24.7763C29.9201 24.8756 29.9815 25.0066 29.9942 25.1465C30.0069 25.2864 29.9701 25.4264 29.8903 25.5419L29.8207 25.6259L24.4303 31.0259C24.3467 31.1095 24.2402 31.1663 24.1243 31.1891L23.9971 31.2011C23.9054 31.201 23.815 31.1798 23.7329 31.1393C23.6507 31.0987 23.5789 31.0398 23.5231 30.9671L18.1747 25.6259C18.068 25.5203 18.0047 25.3785 17.9975 25.2285C17.9902 25.0786 18.0394 24.9313 18.1354 24.8159C18.2315 24.7004 18.3673 24.6252 18.516 24.605C18.6648 24.5848 18.8158 24.6211 18.9391 24.7067L19.0231 24.7763L23.3971 29.1455L23.4019 15.0023C23.4019 14.8432 23.4651 14.6906 23.5776 14.5781C23.6901 14.4656 23.8428 14.4023 24.0019 14.4023Z" fill="white"/>
</svg>
